<mxfile host="app.diagrams.net" modified="2023-11-15T03:17:53.563Z" agent="Mozilla/5.0 (Windows NT 10.0; Win64; x64) AppleWebKit/537.36 (KHTML, like Gecko) Chrome/117.0.0.0 Safari/537.36" etag="EX1Fm6W4pDQ6Mv-e23oA" version="22.1.0" type="device">
  <diagram name="Page-1" id="74e2e168-ea6b-b213-b513-2b3c1d86103e">
    <mxGraphModel dx="1434" dy="790" grid="1" gridSize="10" guides="1" tooltips="1" connect="1" arrows="1" fold="1" page="1" pageScale="1" pageWidth="1100" pageHeight="850" background="none" math="0" shadow="0">
      <root>
        <mxCell id="0" />
        <mxCell id="1" parent="0" />
        <mxCell id="77e6c97f196da883-1" value="&lt;font style=&quot;font-size: 14px;&quot;&gt;Group Life / Medical Insurance Flow Chart&lt;/font&gt;" style="swimlane;html=1;childLayout=stackLayout;startSize=20;rounded=0;shadow=0;labelBackgroundColor=none;strokeWidth=1;fontFamily=Verdana;fontSize=8;align=center;" parent="1" vertex="1">
          <mxGeometry x="230" y="40" width="1390" height="770" as="geometry" />
        </mxCell>
        <mxCell id="77e6c97f196da883-2" value="CoverGO - Asia Insurance" style="swimlane;html=1;startSize=20;" parent="77e6c97f196da883-1" vertex="1">
          <mxGeometry y="20" width="550" height="750" as="geometry" />
        </mxCell>
        <mxCell id="5_pSKLA2qr0-XORIHgiw-19" style="edgeStyle=orthogonalEdgeStyle;rounded=0;orthogonalLoop=1;jettySize=auto;html=1;exitX=0.5;exitY=1;exitDx=0;exitDy=0;entryX=0.5;entryY=0;entryDx=0;entryDy=0;entryPerimeter=0;" parent="77e6c97f196da883-2" source="77e6c97f196da883-8" target="5_pSKLA2qr0-XORIHgiw-18" edge="1">
          <mxGeometry relative="1" as="geometry" />
        </mxCell>
        <mxCell id="77e6c97f196da883-8" value="&lt;font style=&quot;font-size: 12px;&quot;&gt;Generate Agents Transactions Interface File&lt;br&gt;(Daily basis Schedule)&lt;br&gt;&lt;/font&gt;" style="rounded=1;whiteSpace=wrap;html=1;shadow=0;labelBackgroundColor=none;strokeWidth=1;fontFamily=Verdana;fontSize=8;align=center;fillColor=#fff2cc;strokeColor=#d6b656;" parent="77e6c97f196da883-2" vertex="1">
          <mxGeometry x="72" y="129" width="170" height="100" as="geometry" />
        </mxCell>
        <mxCell id="zQwO_k3t3CgDYdLT3B1n-59" value="SFTP PUT" style="text;html=1;strokeColor=none;fillColor=none;align=center;verticalAlign=middle;whiteSpace=wrap;rounded=0;" parent="77e6c97f196da883-2" vertex="1">
          <mxGeometry x="320" y="150" width="170" height="40" as="geometry" />
        </mxCell>
        <mxCell id="zQwO_k3t3CgDYdLT3B1n-66" style="edgeStyle=orthogonalEdgeStyle;rounded=0;orthogonalLoop=1;jettySize=auto;html=1;entryX=-0.01;entryY=0.416;entryDx=0;entryDy=0;entryPerimeter=0;" parent="77e6c97f196da883-2" target="77e6c97f196da883-8" edge="1">
          <mxGeometry relative="1" as="geometry">
            <mxPoint x="43.999857190007106" y="170.0999999999999" as="sourcePoint" />
          </mxGeometry>
        </mxCell>
        <mxCell id="5_pSKLA2qr0-XORIHgiw-1" value="" style="ellipse;whiteSpace=wrap;html=1;aspect=fixed;" parent="77e6c97f196da883-2" vertex="1">
          <mxGeometry x="14" y="155" width="30" height="30" as="geometry" />
        </mxCell>
        <mxCell id="5_pSKLA2qr0-XORIHgiw-5" value="&lt;font style=&quot;border-color: var(--border-color); font-family: Verdana;&quot;&gt;&lt;b style=&quot;border-color: var(--border-color);&quot;&gt;&lt;u style=&quot;border-color: var(--border-color);&quot;&gt;Agents&#39; Transactions Interface&lt;/u&gt;&lt;/b&gt;&lt;br style=&quot;border-color: var(--border-color);&quot;&gt;&lt;/font&gt;&lt;br style=&quot;border-color: var(--border-color); font-family: Verdana; font-size: 8px;&quot;&gt;&lt;div style=&quot;border-color: var(--border-color); font-family: Verdana; font-size: 9px;&quot;&gt;Transaction Date - Issue Date, Renewal Date, Adjustment Date&lt;/div&gt;&lt;div style=&quot;border-color: var(--border-color); font-family: Verdana; font-size: 9px;&quot;&gt;Agent Code - 7-digit code&lt;/div&gt;&lt;div style=&quot;border-color: var(--border-color); font-family: Verdana; font-size: 9px;&quot;&gt;Transaction Type - NB Issuance, NB Renewal, Adjustment&lt;/div&gt;&lt;div style=&quot;border-color: var(--border-color); font-family: Verdana; font-size: 9px;&quot;&gt;Business Type - Group Life, Group Medical products&lt;/div&gt;&lt;div style=&quot;border-color: var(--border-color); font-family: Verdana; font-size: 9px;&quot;&gt;Policy Number&lt;/div&gt;&lt;div style=&quot;border-color: var(--border-color); font-family: Verdana; font-size: 9px;&quot;&gt;Policy Issue Date&lt;/div&gt;&lt;div style=&quot;border-color: var(--border-color); font-family: Verdana; font-size: 9px;&quot;&gt;Policy Next Due Date - Renewal Date&lt;/div&gt;&lt;div style=&quot;border-color: var(--border-color); font-family: Verdana; font-size: 9px;&quot;&gt;Premium Amount in HKD&lt;/div&gt;&lt;div style=&quot;border-color: var(--border-color); font-family: Verdana; font-size: 9px;&quot;&gt;Commission Amount in HKD&lt;/div&gt;&lt;div style=&quot;border-color: var(--border-color); font-family: Verdana; font-size: 9px;&quot;&gt;Premium Year&lt;/div&gt;&lt;div style=&quot;border-color: var(--border-color); font-family: Verdana; font-size: 9px;&quot;&gt;Initial Annual Premium&lt;/div&gt;" style="shape=document;whiteSpace=wrap;html=1;boundedLbl=1;size=0.0625;" parent="77e6c97f196da883-2" vertex="1">
          <mxGeometry x="250" y="187" width="290" height="160" as="geometry" />
        </mxCell>
        <mxCell id="5_pSKLA2qr0-XORIHgiw-10" value="&lt;u style=&quot;border-color: var(--border-color);&quot;&gt;&lt;b style=&quot;border-color: var(--border-color);&quot;&gt;Agents&#39; Information Interface&lt;/b&gt;&lt;/u&gt;&lt;br style=&quot;border-color: var(--border-color);&quot;&gt;&lt;div style=&quot;border-color: var(--border-color);&quot;&gt;&lt;font style=&quot;border-color: var(--border-color); font-size: 10px;&quot;&gt;Agent Na&lt;/font&gt;&lt;font style=&quot;border-color: var(--border-color); font-size: 10px;&quot;&gt;me&lt;/font&gt;&lt;/div&gt;&lt;div style=&quot;border-color: var(--border-color);&quot;&gt;&lt;font style=&quot;border-color: var(--border-color); font-size: 10px;&quot;&gt;Agent Code&lt;/font&gt;&lt;/div&gt;&lt;div style=&quot;border-color: var(--border-color);&quot;&gt;&lt;font style=&quot;border-color: var(--border-color); font-size: 10px;&quot;&gt;Agent License Number&lt;/font&gt;&lt;/div&gt;&lt;div style=&quot;border-color: var(--border-color);&quot;&gt;&lt;font style=&quot;border-color: var(--border-color); font-size: 10px;&quot;&gt;Agent License Expiry Date&lt;/font&gt;&lt;/div&gt;" style="shape=document;whiteSpace=wrap;html=1;boundedLbl=1;size=0.0625;" parent="77e6c97f196da883-2" vertex="1">
          <mxGeometry x="305" y="512" width="175" height="90" as="geometry" />
        </mxCell>
        <mxCell id="5_pSKLA2qr0-XORIHgiw-20" style="edgeStyle=orthogonalEdgeStyle;rounded=0;orthogonalLoop=1;jettySize=auto;html=1;exitX=0.5;exitY=0;exitDx=0;exitDy=0;" parent="77e6c97f196da883-2" source="5_pSKLA2qr0-XORIHgiw-12" target="5_pSKLA2qr0-XORIHgiw-18" edge="1">
          <mxGeometry relative="1" as="geometry" />
        </mxCell>
        <mxCell id="5_pSKLA2qr0-XORIHgiw-12" value="&lt;font style=&quot;font-size: 12px;&quot;&gt;Update Agent Information from Interface File&lt;br&gt;(Daily basis Schedule)&lt;br&gt;&lt;/font&gt;" style="rounded=1;whiteSpace=wrap;html=1;shadow=0;labelBackgroundColor=none;strokeWidth=1;fontFamily=Verdana;fontSize=8;align=center;fillColor=#fff2cc;strokeColor=#d6b656;" parent="77e6c97f196da883-2" vertex="1">
          <mxGeometry x="72" y="457" width="170" height="100" as="geometry" />
        </mxCell>
        <mxCell id="5_pSKLA2qr0-XORIHgiw-13" value="" style="ellipse;whiteSpace=wrap;html=1;aspect=fixed;" parent="77e6c97f196da883-2" vertex="1">
          <mxGeometry x="14" y="492" width="30" height="30" as="geometry" />
        </mxCell>
        <mxCell id="5_pSKLA2qr0-XORIHgiw-14" style="edgeStyle=orthogonalEdgeStyle;rounded=0;orthogonalLoop=1;jettySize=auto;html=1;entryX=1;entryY=0.5;entryDx=0;entryDy=0;exitX=0;exitY=0.5;exitDx=0;exitDy=0;" parent="77e6c97f196da883-2" source="5_pSKLA2qr0-XORIHgiw-12" target="5_pSKLA2qr0-XORIHgiw-13" edge="1">
          <mxGeometry relative="1" as="geometry">
            <mxPoint x="53.999857190007106" y="182.0999999999999" as="sourcePoint" />
            <mxPoint x="80" y="183" as="targetPoint" />
          </mxGeometry>
        </mxCell>
        <mxCell id="5_pSKLA2qr0-XORIHgiw-16" value="SFTP GET" style="text;html=1;strokeColor=none;fillColor=none;align=center;verticalAlign=middle;whiteSpace=wrap;rounded=0;" parent="77e6c97f196da883-2" vertex="1">
          <mxGeometry x="320" y="472" width="170" height="40" as="geometry" />
        </mxCell>
        <mxCell id="5_pSKLA2qr0-XORIHgiw-18" value="CoverGO&lt;br&gt;Storage" style="shape=cylinder3;whiteSpace=wrap;html=1;boundedLbl=1;backgroundOutline=1;size=15;" parent="77e6c97f196da883-2" vertex="1">
          <mxGeometry x="107" y="285" width="100" height="80" as="geometry" />
        </mxCell>
        <mxCell id="77e6c97f196da883-4" value="SFTP Service - FTLife" style="swimlane;html=1;startSize=20;" parent="77e6c97f196da883-1" vertex="1">
          <mxGeometry x="550" y="20" width="240" height="750" as="geometry" />
        </mxCell>
        <mxCell id="5_pSKLA2qr0-XORIHgiw-7" value="Inbound &lt;br&gt;FTP Folder" style="shape=internalStorage;whiteSpace=wrap;html=1;backgroundOutline=1;" parent="77e6c97f196da883-4" vertex="1">
          <mxGeometry x="50" y="141" width="155" height="80" as="geometry" />
        </mxCell>
        <mxCell id="5_pSKLA2qr0-XORIHgiw-11" value="Outbound &lt;br&gt;FTP Folder" style="shape=internalStorage;whiteSpace=wrap;html=1;backgroundOutline=1;" parent="77e6c97f196da883-4" vertex="1">
          <mxGeometry x="48" y="467" width="155" height="80" as="geometry" />
        </mxCell>
        <mxCell id="NPlBR6tqK90W8JT19Z48-2" value="IFRS 17 TBC" style="text;html=1;strokeColor=none;fillColor=none;align=center;verticalAlign=middle;whiteSpace=wrap;rounded=0;" vertex="1" parent="77e6c97f196da883-4">
          <mxGeometry x="50" y="360" width="60" height="30" as="geometry" />
        </mxCell>
        <mxCell id="77e6c97f196da883-3" value="Core Systems - FTLife" style="swimlane;html=1;startSize=20;" parent="77e6c97f196da883-1" vertex="1">
          <mxGeometry x="790" y="20" width="300" height="750" as="geometry" />
        </mxCell>
        <mxCell id="zQwO_k3t3CgDYdLT3B1n-58" style="edgeStyle=orthogonalEdgeStyle;rounded=0;orthogonalLoop=1;jettySize=auto;html=1;" parent="77e6c97f196da883-3" source="77e6c97f196da883-11" target="77e6c97f196da883-12" edge="1">
          <mxGeometry relative="1" as="geometry" />
        </mxCell>
        <mxCell id="77e6c97f196da883-11" value="&lt;span style=&quot;font-size: 12px;&quot;&gt;Manual Update to eBAO format and Upload to eBAO&lt;/span&gt;" style="rounded=1;whiteSpace=wrap;html=1;shadow=0;labelBackgroundColor=none;strokeWidth=1;fontFamily=Verdana;fontSize=8;align=center;fillColor=#d5e8d4;strokeColor=#82b366;" parent="77e6c97f196da883-3" vertex="1">
          <mxGeometry x="61" y="260" width="100" height="80" as="geometry" />
        </mxCell>
        <mxCell id="77e6c97f196da883-12" value="&lt;font style=&quot;font-size: 12px;&quot;&gt;&lt;b&gt;eBao&lt;/b&gt;&lt;/font&gt;" style="rounded=1;whiteSpace=wrap;html=1;shadow=0;labelBackgroundColor=none;strokeWidth=1;fontFamily=Verdana;fontSize=8;align=center;" parent="77e6c97f196da883-3" vertex="1">
          <mxGeometry x="61" y="375" width="100" height="60" as="geometry" />
        </mxCell>
        <mxCell id="5_pSKLA2qr0-XORIHgiw-4" value="DSS User" style="shape=umlActor;verticalLabelPosition=bottom;verticalAlign=top;html=1;outlineConnect=0;" parent="77e6c97f196da883-3" vertex="1">
          <mxGeometry x="209" y="280" width="21" height="40" as="geometry" />
        </mxCell>
        <mxCell id="5_pSKLA2qr0-XORIHgiw-21" value="&lt;font style=&quot;font-size: 12px;&quot;&gt;Generate Agents&#39; Information Interface File (Delta, Daily basis Schedule)&lt;br&gt;&lt;/font&gt;" style="rounded=1;whiteSpace=wrap;html=1;shadow=0;labelBackgroundColor=none;strokeWidth=1;fontFamily=Verdana;fontSize=8;align=center;fillColor=#fff2cc;strokeColor=#d6b656;" parent="77e6c97f196da883-3" vertex="1">
          <mxGeometry x="30" y="467" width="150" height="80" as="geometry" />
        </mxCell>
        <mxCell id="NPlBR6tqK90W8JT19Z48-22" style="edgeStyle=orthogonalEdgeStyle;rounded=0;orthogonalLoop=1;jettySize=auto;html=1;" edge="1" parent="77e6c97f196da883-3" source="5_pSKLA2qr0-XORIHgiw-22">
          <mxGeometry relative="1" as="geometry">
            <mxPoint x="112" y="100" as="targetPoint" />
          </mxGeometry>
        </mxCell>
        <mxCell id="5_pSKLA2qr0-XORIHgiw-22" value="User&#39;s Folder" style="shape=internalStorage;whiteSpace=wrap;html=1;backgroundOutline=1;" parent="77e6c97f196da883-3" vertex="1">
          <mxGeometry x="45.5" y="141" width="132.5" height="80" as="geometry" />
        </mxCell>
        <mxCell id="zQwO_k3t3CgDYdLT3B1n-34" value="Ctrl-M&amp;nbsp;&lt;br&gt;Job" style="text;html=1;strokeColor=none;fillColor=none;align=center;verticalAlign=middle;whiteSpace=wrap;rounded=0;" parent="77e6c97f196da883-3" vertex="1">
          <mxGeometry x="-18" y="150" width="79" height="20" as="geometry" />
        </mxCell>
        <mxCell id="5_pSKLA2qr0-XORIHgiw-23" style="edgeStyle=orthogonalEdgeStyle;rounded=0;orthogonalLoop=1;jettySize=auto;html=1;entryX=0.5;entryY=1;entryDx=0;entryDy=0;exitX=0.5;exitY=0;exitDx=0;exitDy=0;" parent="77e6c97f196da883-3" source="77e6c97f196da883-11" target="5_pSKLA2qr0-XORIHgiw-22" edge="1">
          <mxGeometry relative="1" as="geometry">
            <mxPoint x="-207" y="650" as="sourcePoint" />
            <mxPoint x="-563" y="650" as="targetPoint" />
          </mxGeometry>
        </mxCell>
        <mxCell id="5_pSKLA2qr0-XORIHgiw-24" style="edgeStyle=orthogonalEdgeStyle;rounded=0;orthogonalLoop=1;jettySize=auto;html=1;entryX=1;entryY=0.5;entryDx=0;entryDy=0;" parent="77e6c97f196da883-3" source="5_pSKLA2qr0-XORIHgiw-4" target="77e6c97f196da883-11" edge="1">
          <mxGeometry relative="1" as="geometry">
            <mxPoint x="-540" y="191" as="sourcePoint" />
            <mxPoint x="-180" y="191" as="targetPoint" />
          </mxGeometry>
        </mxCell>
        <mxCell id="5_pSKLA2qr0-XORIHgiw-25" value="eBao DB" style="shape=cylinder3;whiteSpace=wrap;html=1;boundedLbl=1;backgroundOutline=1;size=15;" parent="77e6c97f196da883-3" vertex="1">
          <mxGeometry x="217" y="375" width="73" height="60" as="geometry" />
        </mxCell>
        <mxCell id="5_pSKLA2qr0-XORIHgiw-26" style="edgeStyle=orthogonalEdgeStyle;rounded=0;orthogonalLoop=1;jettySize=auto;html=1;exitX=1;exitY=0.5;exitDx=0;exitDy=0;entryX=0.5;entryY=1;entryDx=0;entryDy=0;entryPerimeter=0;" parent="77e6c97f196da883-3" source="5_pSKLA2qr0-XORIHgiw-21" target="5_pSKLA2qr0-XORIHgiw-25" edge="1">
          <mxGeometry relative="1" as="geometry">
            <mxPoint x="216" y="670" as="sourcePoint" />
            <mxPoint x="210" y="560" as="targetPoint" />
          </mxGeometry>
        </mxCell>
        <mxCell id="5_pSKLA2qr0-XORIHgiw-27" style="edgeStyle=orthogonalEdgeStyle;rounded=0;orthogonalLoop=1;jettySize=auto;html=1;entryX=0;entryY=0.5;entryDx=0;entryDy=0;exitX=1;exitY=0.5;exitDx=0;exitDy=0;entryPerimeter=0;" parent="77e6c97f196da883-3" source="77e6c97f196da883-12" target="5_pSKLA2qr0-XORIHgiw-25" edge="1">
          <mxGeometry relative="1" as="geometry">
            <mxPoint x="219" y="310" as="sourcePoint" />
            <mxPoint x="171" y="310" as="targetPoint" />
          </mxGeometry>
        </mxCell>
        <mxCell id="zQwO_k3t3CgDYdLT3B1n-23" value="Batch&lt;br&gt;Job" style="text;html=1;strokeColor=none;fillColor=none;align=center;verticalAlign=middle;whiteSpace=wrap;rounded=0;" parent="77e6c97f196da883-3" vertex="1">
          <mxGeometry x="190" y="478" width="60" height="30" as="geometry" />
        </mxCell>
        <mxCell id="5_pSKLA2qr0-XORIHgiw-28" value="Ctrl-M&amp;nbsp;&lt;br&gt;Job" style="text;html=1;strokeColor=none;fillColor=none;align=center;verticalAlign=middle;whiteSpace=wrap;rounded=0;" parent="77e6c97f196da883-3" vertex="1">
          <mxGeometry x="-49" y="479" width="79" height="20" as="geometry" />
        </mxCell>
        <mxCell id="NPlBR6tqK90W8JT19Z48-23" value="&lt;font style=&quot;&quot;&gt;&lt;b style=&quot;&quot;&gt;&lt;font style=&quot;font-size: 10px;&quot;&gt;Management Report (e.g. Service TAT report)/ &lt;br&gt;Month-end report&lt;/font&gt;&lt;/b&gt;&lt;br&gt;&lt;/font&gt;" style="rounded=1;whiteSpace=wrap;html=1;shadow=0;labelBackgroundColor=none;strokeWidth=1;fontFamily=Verdana;fontSize=8;align=center;" vertex="1" parent="77e6c97f196da883-3">
          <mxGeometry x="51" y="30" width="129" height="70" as="geometry" />
        </mxCell>
        <mxCell id="5_pSKLA2qr0-XORIHgiw-15" style="edgeStyle=orthogonalEdgeStyle;rounded=0;orthogonalLoop=1;jettySize=auto;html=1;entryX=1;entryY=0.5;entryDx=0;entryDy=0;exitX=0;exitY=0.5;exitDx=0;exitDy=0;" parent="77e6c97f196da883-1" source="5_pSKLA2qr0-XORIHgiw-11" target="5_pSKLA2qr0-XORIHgiw-12" edge="1">
          <mxGeometry relative="1" as="geometry">
            <mxPoint x="250" y="213" as="sourcePoint" />
            <mxPoint x="610" y="213" as="targetPoint" />
          </mxGeometry>
        </mxCell>
        <mxCell id="zQwO_k3t3CgDYdLT3B1n-71" style="edgeStyle=orthogonalEdgeStyle;rounded=0;orthogonalLoop=1;jettySize=auto;html=1;entryX=0;entryY=0.5;entryDx=0;entryDy=0;exitX=1;exitY=0.5;exitDx=0;exitDy=0;" parent="77e6c97f196da883-1" source="5_pSKLA2qr0-XORIHgiw-7" target="5_pSKLA2qr0-XORIHgiw-22" edge="1">
          <mxGeometry relative="1" as="geometry">
            <mxPoint x="60" y="660" as="targetPoint" />
            <mxPoint x="585" y="685" as="sourcePoint" />
          </mxGeometry>
        </mxCell>
        <mxCell id="77e6c97f196da883-5" value="Reporting Systems - FTLife" style="swimlane;html=1;startSize=20;" parent="77e6c97f196da883-1" vertex="1">
          <mxGeometry x="1090" y="20" width="300" height="750" as="geometry" />
        </mxCell>
        <mxCell id="zQwO_k3t3CgDYdLT3B1n-21" value="DSG" style="text;html=1;strokeColor=none;fillColor=none;align=center;verticalAlign=middle;whiteSpace=wrap;rounded=0;" parent="77e6c97f196da883-5" vertex="1">
          <mxGeometry x="-10" y="387" width="90" height="30" as="geometry" />
        </mxCell>
        <mxCell id="zQwO_k3t3CgDYdLT3B1n-7" value="&lt;font style=&quot;&quot;&gt;&lt;b style=&quot;font-size: 12px;&quot;&gt;SD Report&lt;br&gt;&lt;/b&gt;&lt;font style=&quot;font-size: 10px;&quot;&gt;scm0032a_ebao / scm0032c_ebao_adjust /&lt;br&gt;&lt;/font&gt;&lt;/font&gt;&lt;font style=&quot;font-size: 10px;&quot;&gt;&lt;span style=&quot;background-color: initial;&quot;&gt;at_Detail /&amp;nbsp;&lt;br&gt;&lt;/span&gt;&lt;span style=&quot;font-family: Calibri, sans-serif; background-color: initial;&quot;&gt;EADV_D /&amp;nbsp;&lt;br&gt;&lt;/span&gt;&lt;span style=&quot;font-family: Calibri, sans-serif; background-color: initial;&quot;&gt;Detail_Accdue_M /&lt;/span&gt;&lt;span style=&quot;font-family: Calibri, sans-serif; background-color: initial;&quot;&gt;&lt;br&gt;&lt;/span&gt;&lt;span style=&quot;font-family: Calibri, sans-serif;&quot;&gt;Detail_Producer_Cycle&amp;nbsp;&lt;/span&gt;&lt;br&gt;&lt;/font&gt;" style="rounded=1;whiteSpace=wrap;html=1;shadow=0;labelBackgroundColor=none;strokeWidth=1;fontFamily=Verdana;fontSize=8;align=center;" parent="77e6c97f196da883-5" vertex="1">
          <mxGeometry x="160" y="135" width="130" height="130" as="geometry" />
        </mxCell>
        <mxCell id="zQwO_k3t3CgDYdLT3B1n-9" value="&lt;font style=&quot;font-size: 12px;&quot;&gt;&lt;b&gt;MIS Report&lt;/b&gt;&lt;br&gt;Mi113f&lt;br&gt;Mi124&lt;br&gt;&amp;nbsp;Mi129&amp;nbsp;&lt;br&gt;&lt;/font&gt;" style="rounded=1;whiteSpace=wrap;html=1;shadow=0;labelBackgroundColor=none;strokeWidth=1;fontFamily=Verdana;fontSize=8;align=center;" parent="77e6c97f196da883-5" vertex="1">
          <mxGeometry x="188" y="540" width="102" height="60" as="geometry" />
        </mxCell>
        <mxCell id="5_pSKLA2qr0-XORIHgiw-32" value="P06 DB" style="shape=cylinder3;whiteSpace=wrap;html=1;boundedLbl=1;backgroundOutline=1;size=15;" parent="77e6c97f196da883-5" vertex="1">
          <mxGeometry x="70" y="372" width="73" height="60" as="geometry" />
        </mxCell>
        <mxCell id="zQwO_k3t3CgDYdLT3B1n-15" value="&lt;font style=&quot;font-size: 12px;&quot;&gt;&lt;b&gt;P08&lt;/b&gt;&lt;/font&gt;" style="rounded=1;whiteSpace=wrap;html=1;shadow=0;labelBackgroundColor=none;strokeWidth=1;fontFamily=Verdana;fontSize=8;align=center;" parent="77e6c97f196da883-5" vertex="1">
          <mxGeometry x="190" y="417" width="100" height="40" as="geometry" />
        </mxCell>
        <mxCell id="5_pSKLA2qr0-XORIHgiw-40" value="&lt;font style=&quot;font-size: 12px;&quot;&gt;&lt;b&gt;P06 - Management Dashboard&lt;/b&gt;&lt;/font&gt;" style="rounded=1;whiteSpace=wrap;html=1;shadow=0;labelBackgroundColor=none;strokeWidth=1;fontFamily=Verdana;fontSize=8;align=center;" parent="77e6c97f196da883-5" vertex="1">
          <mxGeometry x="190" y="330" width="100" height="55" as="geometry" />
        </mxCell>
        <mxCell id="5_pSKLA2qr0-XORIHgiw-41" style="edgeStyle=orthogonalEdgeStyle;rounded=0;orthogonalLoop=1;jettySize=auto;html=1;entryX=1;entryY=0;entryDx=0;entryDy=37.5;exitX=0;exitY=0.5;exitDx=0;exitDy=0;entryPerimeter=0;" parent="77e6c97f196da883-5" source="5_pSKLA2qr0-XORIHgiw-40" target="5_pSKLA2qr0-XORIHgiw-32" edge="1">
          <mxGeometry relative="1" as="geometry">
            <mxPoint x="-129" y="415" as="sourcePoint" />
            <mxPoint x="-73" y="415" as="targetPoint" />
          </mxGeometry>
        </mxCell>
        <mxCell id="5_pSKLA2qr0-XORIHgiw-42" style="edgeStyle=orthogonalEdgeStyle;rounded=0;orthogonalLoop=1;jettySize=auto;html=1;entryX=1;entryY=0;entryDx=0;entryDy=37.5;exitX=0;exitY=0.5;exitDx=0;exitDy=0;entryPerimeter=0;" parent="77e6c97f196da883-5" source="zQwO_k3t3CgDYdLT3B1n-15" target="5_pSKLA2qr0-XORIHgiw-32" edge="1">
          <mxGeometry relative="1" as="geometry">
            <mxPoint x="200" y="368" as="sourcePoint" />
            <mxPoint x="153" y="405" as="targetPoint" />
          </mxGeometry>
        </mxCell>
        <mxCell id="5_pSKLA2qr0-XORIHgiw-46" value="&lt;font style=&quot;font-size: 12px;&quot;&gt;SD Report Generation Job&lt;br&gt;(Batch)&lt;br&gt;&lt;/font&gt;" style="rounded=1;whiteSpace=wrap;html=1;shadow=0;labelBackgroundColor=none;strokeWidth=1;fontFamily=Verdana;fontSize=8;align=center;fillColor=#fff2cc;strokeColor=#d6b656;" parent="77e6c97f196da883-5" vertex="1">
          <mxGeometry x="20" y="160" width="83" height="80" as="geometry" />
        </mxCell>
        <mxCell id="5_pSKLA2qr0-XORIHgiw-49" style="edgeStyle=orthogonalEdgeStyle;rounded=0;orthogonalLoop=1;jettySize=auto;html=1;exitX=1;exitY=0.5;exitDx=0;exitDy=0;" parent="77e6c97f196da883-5" source="5_pSKLA2qr0-XORIHgiw-46" edge="1">
          <mxGeometry relative="1" as="geometry">
            <mxPoint x="30" y="210" as="sourcePoint" />
            <mxPoint x="160" y="200" as="targetPoint" />
            <Array as="points">
              <mxPoint x="160" y="200" />
            </Array>
          </mxGeometry>
        </mxCell>
        <mxCell id="5_pSKLA2qr0-XORIHgiw-50" value="&lt;font style=&quot;font-size: 12px;&quot;&gt;SSIS Data Pipeline&lt;br&gt;(Scheduled basis)&lt;br&gt;&lt;/font&gt;" style="rounded=1;whiteSpace=wrap;html=1;shadow=0;labelBackgroundColor=none;strokeWidth=1;fontFamily=Verdana;fontSize=8;align=center;fillColor=#fff2cc;strokeColor=#d6b656;" parent="77e6c97f196da883-5" vertex="1">
          <mxGeometry x="20" y="530" width="100" height="80" as="geometry" />
        </mxCell>
        <mxCell id="5_pSKLA2qr0-XORIHgiw-43" style="edgeStyle=orthogonalEdgeStyle;rounded=0;orthogonalLoop=1;jettySize=auto;html=1;exitX=1;exitY=0.5;exitDx=0;exitDy=0;entryX=0;entryY=0.5;entryDx=0;entryDy=0;" parent="77e6c97f196da883-5" source="5_pSKLA2qr0-XORIHgiw-50" target="zQwO_k3t3CgDYdLT3B1n-9" edge="1">
          <mxGeometry relative="1" as="geometry">
            <mxPoint x="150" y="570" as="sourcePoint" />
            <mxPoint x="180" y="570" as="targetPoint" />
            <Array as="points" />
          </mxGeometry>
        </mxCell>
        <mxCell id="NPlBR6tqK90W8JT19Z48-18" value="&lt;font style=&quot;&quot;&gt;&lt;span style=&quot;font-size: 12px;&quot;&gt;&lt;b&gt;IFRS 17 ETL&lt;br&gt;&lt;/b&gt;&lt;/span&gt;(TBC)&lt;br&gt;&lt;/font&gt;" style="rounded=1;whiteSpace=wrap;html=1;shadow=0;labelBackgroundColor=none;strokeWidth=1;fontFamily=Verdana;fontSize=8;align=center;" vertex="1" parent="77e6c97f196da883-5">
          <mxGeometry x="33" y="40" width="110" height="60" as="geometry" />
        </mxCell>
        <mxCell id="5_pSKLA2qr0-XORIHgiw-30" style="edgeStyle=orthogonalEdgeStyle;rounded=0;orthogonalLoop=1;jettySize=auto;html=1;entryX=1;entryY=0.5;entryDx=0;entryDy=0;exitX=0;exitY=0.5;exitDx=0;exitDy=0;" parent="77e6c97f196da883-1" source="5_pSKLA2qr0-XORIHgiw-21" target="5_pSKLA2qr0-XORIHgiw-11" edge="1">
          <mxGeometry relative="1" as="geometry">
            <mxPoint x="961" y="435" as="sourcePoint" />
            <mxPoint x="1017" y="435" as="targetPoint" />
          </mxGeometry>
        </mxCell>
        <mxCell id="5_pSKLA2qr0-XORIHgiw-47" style="edgeStyle=orthogonalEdgeStyle;rounded=0;orthogonalLoop=1;jettySize=auto;html=1;exitX=0;exitY=0.5;exitDx=0;exitDy=0;entryX=0.699;entryY=0.033;entryDx=0;entryDy=0;entryPerimeter=0;" parent="77e6c97f196da883-1" source="5_pSKLA2qr0-XORIHgiw-46" target="5_pSKLA2qr0-XORIHgiw-25" edge="1">
          <mxGeometry relative="1" as="geometry">
            <mxPoint x="1079" y="461" as="sourcePoint" />
            <mxPoint x="1190" y="330" as="targetPoint" />
            <Array as="points">
              <mxPoint x="1058" y="220" />
            </Array>
          </mxGeometry>
        </mxCell>
        <mxCell id="5_pSKLA2qr0-XORIHgiw-51" style="edgeStyle=orthogonalEdgeStyle;rounded=0;orthogonalLoop=1;jettySize=auto;html=1;exitX=0;exitY=0.5;exitDx=0;exitDy=0;entryX=0.855;entryY=1;entryDx=0;entryDy=-4.35;entryPerimeter=0;" parent="77e6c97f196da883-1" source="5_pSKLA2qr0-XORIHgiw-50" target="5_pSKLA2qr0-XORIHgiw-25" edge="1">
          <mxGeometry relative="1" as="geometry">
            <mxPoint x="980" y="537" as="sourcePoint" />
            <mxPoint x="1054" y="465" as="targetPoint" />
          </mxGeometry>
        </mxCell>
        <mxCell id="NPlBR6tqK90W8JT19Z48-19" style="edgeStyle=orthogonalEdgeStyle;rounded=0;orthogonalLoop=1;jettySize=auto;html=1;entryX=0;entryY=0.5;entryDx=0;entryDy=0;" edge="1" parent="77e6c97f196da883-1" source="5_pSKLA2qr0-XORIHgiw-25" target="NPlBR6tqK90W8JT19Z48-18">
          <mxGeometry relative="1" as="geometry" />
        </mxCell>
        <mxCell id="NPlBR6tqK90W8JT19Z48-21" style="edgeStyle=orthogonalEdgeStyle;rounded=0;orthogonalLoop=1;jettySize=auto;html=1;entryX=0;entryY=0.25;entryDx=0;entryDy=0;" edge="1" parent="77e6c97f196da883-1" source="5_pSKLA2qr0-XORIHgiw-18" target="77e6c97f196da883-12">
          <mxGeometry relative="1" as="geometry">
            <Array as="points">
              <mxPoint x="157" y="410" />
            </Array>
          </mxGeometry>
        </mxCell>
        <mxCell id="5_pSKLA2qr0-XORIHgiw-8" style="edgeStyle=orthogonalEdgeStyle;rounded=0;orthogonalLoop=1;jettySize=auto;html=1;entryX=0;entryY=0.5;entryDx=0;entryDy=0;" parent="1" target="5_pSKLA2qr0-XORIHgiw-7" edge="1">
          <mxGeometry relative="1" as="geometry">
            <mxPoint x="470" y="241" as="sourcePoint" />
            <mxPoint x="310" y="241" as="targetPoint" />
          </mxGeometry>
        </mxCell>
        <mxCell id="5_pSKLA2qr0-XORIHgiw-31" style="edgeStyle=orthogonalEdgeStyle;rounded=0;orthogonalLoop=1;jettySize=auto;html=1;entryX=0;entryY=0.5;entryDx=0;entryDy=0;" parent="1" edge="1">
          <mxGeometry relative="1" as="geometry">
            <mxPoint x="1310" y="470" as="sourcePoint" />
            <mxPoint x="1390" y="470" as="targetPoint" />
          </mxGeometry>
        </mxCell>
        <mxCell id="5_pSKLA2qr0-XORIHgiw-52" value="Legend" style="rounded=0;whiteSpace=wrap;html=1;align=left;" parent="1" vertex="1">
          <mxGeometry x="1270" y="830" width="350" height="60" as="geometry" />
        </mxCell>
        <mxCell id="5_pSKLA2qr0-XORIHgiw-53" value="&lt;font style=&quot;font-size: 12px;&quot;&gt;System &lt;br&gt;Process&lt;br&gt;&lt;/font&gt;" style="rounded=1;whiteSpace=wrap;html=1;shadow=0;labelBackgroundColor=none;strokeWidth=1;fontFamily=Verdana;fontSize=8;align=center;fillColor=#fff2cc;strokeColor=#d6b656;" parent="1" vertex="1">
          <mxGeometry x="1345" y="840" width="100" height="40" as="geometry" />
        </mxCell>
        <mxCell id="5_pSKLA2qr0-XORIHgiw-54" value="&lt;font style=&quot;font-size: 12px;&quot;&gt;Manual&lt;br&gt;Process&lt;br&gt;&lt;/font&gt;" style="rounded=1;whiteSpace=wrap;html=1;shadow=0;labelBackgroundColor=none;strokeWidth=1;fontFamily=Verdana;fontSize=8;align=center;fillColor=#d5e8d4;strokeColor=#82b366;" parent="1" vertex="1">
          <mxGeometry x="1485" y="840" width="100" height="40" as="geometry" />
        </mxCell>
      </root>
    </mxGraphModel>
  </diagram>
</mxfile>
